<svg xmlns="http://www.w3.org/2000/svg" viewBox="0 0 232 232">
  <g>
    <path d="M116 0a116 116 0 1 0 116 116A116 116 0 0 0 116 0zm40.703 161.08a34.738 34.738 0 0 1-6.576 11.64 30.64 30.64 0 0 1-10.93 8 37.24 37.24 0 0 1-15.286 2.932H80.72V51.414h30.75a52.902 52.902 0 0 1 17.062 2.488 33.07 33.07 0 0 1 11.908 6.755 27.525 27.525 0 0 1 6.932 9.953 32.32 32.32 0 0 1 2.31 12.264 40.32 40.32 0 0 1-1.865 12.62 35.764 35.764 0 0 1-4.8 9.775 24.507 24.507 0 0 1-6.487 6.398 12.488 12.488 0 0 1-6.754 2.31 25.943 25.943 0 0 1 13.508 3.29 28.73 28.73 0 0 1 8.976 8.263 34.903 34.903 0 0 1 5.065 10.843 41.43 41.43 0 0 1 1.6 10.842 43.025 43.025 0 0 1-2.222 13.864z"/>
    <path fill="#fff" d="M157.326 136.373a34.903 34.903 0 0 0-5.066-10.842 28.73 28.73 0 0 0-8.976-8.264 25.943 25.943 0 0 0-13.508-3.288 12.49 12.49 0 0 0 6.754-2.31 24.503 24.503 0 0 0 6.488-6.4 35.764 35.764 0 0 0 4.8-9.775 40.318 40.318 0 0 0 1.865-12.62 32.32 32.32 0 0 0-2.31-12.263 27.524 27.524 0 0 0-6.933-9.953 33.072 33.072 0 0 0-11.908-6.755 52.9 52.9 0 0 0-17.063-2.488H80.72v132.238h43.19a37.24 37.24 0 0 0 15.286-2.933 30.64 30.64 0 0 0 10.93-8 34.736 34.736 0 0 0 6.577-11.64 43.025 43.025 0 0 0 2.222-13.865 41.432 41.432 0 0 0-1.6-10.842z"/>
  </g>
</svg>