<svg xmlns="http://www.w3.org/2000/svg" viewBox="0 0 859.7104 129.9629"><title>Asset 1</title><g id="Layer_2" data-name="Layer 2"><g id="Layer_1-2" data-name="Layer 1"><path d="M20,32.3412v90.64H0v-121H21.3691L87,90.6415V1.9814h21v121H87.1Z" fill="#da4a4a"/><path d="M842.397,107.6084l10.52,11.835-12.4922,10.52-10.958-12.2734c-9.2051,5.2607-20.1631,8.1094-32.6553,8.1094-37.915,0-63.1182-27.1758-63.1182-62.8994S758.896,0,796.811,0C834.2876,0,859.71,27.1758,859.71,62.8994,859.71,80.6514,853.355,96.4316,842.397,107.6084Zm-25.8613-4.3828L801.1948,86.1309,813.687,75.3916l15.3408,17.3135c6.3555-7.89,9.6436-18.19,9.6436-29.8057,0-25.6416-16.4375-44.709-41.86-44.709-25.6416,0-42.0791,19.0674-42.0791,44.709,0,25.4229,16.4375,44.709,42.0791,44.709A43.573,43.573,0,0,0,816.5356,103.2256Z" fill="#929fa6"/><polygon points="195.985 60.981 196 60.982 196.031 52.981 159 52.981 159 20.981 225 20.981 225 1.981 139 1.981 139 122.981 224 122.981 224 104.981 159 104.981 159 70.981 196 70.981 196.038 60.982 195.985 60.981" fill="#da4a4a"/><line x1="517" y1="61.9814" x2="517" y2="55.9814" fill="#fff"/><line x1="517" y1="66.9814" x2="517" y2="61.9814" fill="#fff"/><path d="M671.89,51.5029c-14.9033-3.7256-27.6143-6.7939-27.6143-16.875,0-9.8623,9.8623-16.876,23.6689-16.876,12.9307,0,27.1768,4.8213,36.1621,14.2461l10.3008-14.6846C703.45,6.5752,688.1079,0,668.1646,0c-26.08,0-44.9287,15.1221-44.9287,35.2852,0,11.739,5.0815,19.1226,12.582,24.1531l65.5513,2.0366C692.7388,56.42,681.833,53.83,671.89,51.5029Z" fill="#929fa6"/><path d="M644.3154,64.3435c6.9414,2.86,14.8052,4.7,22.3149,6.4761,15.5605,3.9453,29.5869,7.2324,29.5869,19.5059,0,9.6426-7.89,18.4092-27.1758,18.4092a56.3548,56.3548,0,0,1-39.4492-16.6562l-10.3008,15.5605c10.0811,10.7393,27.3955,18.6289,49.3115,18.6289,32.6553,0,48.6533-15.5605,48.6533-36.8193,0-12.9788-5.8433-21.0437-14.2051-26.467l-.5581-.0022Z" fill="#929fa6"/><polygon points="517 122.981 602 122.981 602 104.981 537 104.981 537 69.981 601 69.981 601 64.255 517 66.249 517 122.981" fill="#929fa6"/><polygon points="601 52.981 537 52.981 537 20.981 602 20.981 602 2.981 517 2.981 517 56.123 601 58.746 601 52.981" fill="#929fa6"/><path d="M416,20.9814h31.1839c13.548,0,21.29,8.1212,21.29,19.5356,0,5.6451-1.7366,10.5031-5.1061,14.0211l23.0473.7311a42.4591,42.4591,0,0,0,2.4891-14.7522c0-20.8531-14.4085-37.5356-39.57-37.5356H396v49.42l20,.6343Z" fill="#929fa6"/><path d="M396,122.9814h20v-45h22.1513l28.817,45h23.4411L458.366,76.2342a33.5905,33.5905,0,0,0,19.5058-8.49L396,69.6944Z" fill="#929fa6"/><path d="M307.4282,18.19c21.1123,0,36.0171,13.1567,40.4678,32.302l21.4619.667C364.416,21.3926,340.6731,0,307.4282,0c-32.1741,0-55.1853,19.5725-61.42,47.3269l21.3835.6643C272.5293,30.2112,287.0735,18.19,307.4282,18.19Z" fill="#da4a4a"/><path d="M307.4282,107.6084c-22.2114,0-37.5073-14.4749-41.2053-34.87l-21.175.4966c4.3857,30.4976,28.218,52.5635,62.38,52.5635,34.8374,0,59.2456-23.4888,62.5122-55.4917l-21.2161.4976C345.6675,92.2122,330.1382,107.6084,307.4282,107.6084Z" fill="#da4a4a"/></g></g></svg>