<svg xmlns="http://www.w3.org/2000/svg" viewBox="0 0 671.651 149.99">
  <g>
    <path fill="#da4a4a" d="M116.936 1.374L101.48 126.466H86.888a11.215 11.215 0 0 1-5.28-1.073 11.595 11.595 0 0 1-3.82-3.563L34.085 44.56q-.258 4.98-.772 8.93l-8.586 72.976H0L15.454 1.374h14.768a30.306 30.306 0 0 1 3.048.13 6.36 6.36 0 0 1 2.19.6 5.827 5.827 0 0 1 1.716 1.33 16.198 16.198 0 0 1 1.63 2.233l43.874 77.27q.257-3.004.514-5.752t.602-5.15l8.414-70.66zM195.753 109.98a93.548 93.548 0 0 1-9.23 8.03 50.47 50.47 0 0 1-9.272 5.58 44.133 44.133 0 0 1-10.13 3.22 62.267 62.267 0 0 1-11.72 1.03 37.946 37.946 0 0 1-14.51-2.705 32.91 32.91 0 0 1-11.375-7.64 34.255 34.255 0 0 1-7.383-11.893 43.525 43.525 0 0 1-2.62-15.454 60.763 60.763 0 0 1 1.59-13.908 58.672 58.672 0 0 1 4.55-12.75 53.322 53.322 0 0 1 7.255-10.99 47.558 47.558 0 0 1 9.658-8.628 45.517 45.517 0 0 1 11.763-5.623 44.981 44.981 0 0 1 13.608-2.02 36.156 36.156 0 0 1 12.664 2.062 29.72 29.72 0 0 1 9.315 5.366 23.15 23.15 0 0 1 5.752 7.426 18.935 18.935 0 0 1 1.976 8.242 25.434 25.434 0 0 1-2.404 11.12 22.885 22.885 0 0 1-8.372 8.97q-5.968 3.95-16.055 6.697a160.02 160.02 0 0 1-25.37 4.293q.17 9.1 3.99 13.308 3.82 4.208 11.29 4.207a27.136 27.136 0 0 0 6.098-.6 21.2 21.2 0 0 0 4.507-1.546 30.042 30.042 0 0 0 3.478-1.974l2.962-1.975a15.453 15.453 0 0 1 2.962-1.546 9.682 9.682 0 0 1 3.52-.6 5.213 5.213 0 0 1 2.49.642 8.085 8.085 0 0 1 2.145 1.675zM166.39 54.176a15.473 15.473 0 0 0-11.59 5.28q-4.98 5.28-7.384 14.467a116.9 116.9 0 0 0 13.394-2.747 34.76 34.76 0 0 0 7.985-3.134 9.695 9.695 0 0 0 3.82-3.562 8.766 8.766 0 0 0 .988-4.122 6.327 6.327 0 0 0-1.717-4.207q-1.72-1.974-5.495-1.975zM239.88 127.84a38.587 38.587 0 0 1-13.95-2.49 31.843 31.843 0 0 1-11.247-7.255 33.396 33.396 0 0 1-7.47-11.762 44.458 44.458 0 0 1-2.705-16.098 58.86 58.86 0 0 1 3.907-21.765 54.71 54.71 0 0 1 10.517-17.128 47.97 47.97 0 0 1 15.326-11.247 43.122 43.122 0 0 1 18.33-4.035 38.228 38.228 0 0 1 13.908 2.49 31.957 31.957 0 0 1 11.204 7.254 33.913 33.913 0 0 1 7.513 11.762 43.846 43.846 0 0 1 2.747 16.098 58.408 58.408 0 0 1-3.906 21.593 55.31 55.31 0 0 1-10.518 17.172 48.217 48.217 0 0 1-15.325 11.332 42.752 42.752 0 0 1-18.33 4.078zm2.405-19.747a12.767 12.767 0 0 0 7.985-2.704 21.92 21.92 0 0 0 5.966-7.385 42.74 42.74 0 0 0 3.778-10.904 63.314 63.314 0 0 0 1.33-13.264q0-9.7-2.617-13.865-2.62-4.162-8.543-4.163a12.76 12.76 0 0 0-7.985 2.704 22.01 22.01 0 0 0-5.968 7.342 41.98 41.98 0 0 0-3.778 10.903 63.947 63.947 0 0 0-1.33 13.308q0 9.53 2.618 13.78t8.543 4.25z"/>
    <path fill="#7c2c2c" d="M348.23 1.374a68.585 68.585 0 0 1 19.62 2.446 37.302 37.302 0 0 1 13.265 6.74 25.494 25.494 0 0 1 7.512 10.174 33.922 33.922 0 0 1 2.362 12.75 45.85 45.85 0 0 1-1.847 13.093 40.495 40.495 0 0 1-13.953 20.606A45.71 45.71 0 0 1 363.6 73.75a22.805 22.805 0 0 1 4.723 3.563 18.262 18.262 0 0 1 3.605 5.11l18.202 44.043h-25.242a11.254 11.254 0 0 1-5.88-1.417 8.037 8.037 0 0 1-3.393-3.907L342.05 84.14a7.58 7.58 0 0 0-2.575-3.35 8.435 8.435 0 0 0-4.637-1.03h-6.267l-5.75 46.706H295L310.284 1.374zm-7.04 59.068a25.355 25.355 0 0 0 10.218-1.845 18.535 18.535 0 0 0 6.826-4.937 18.938 18.938 0 0 0 3.778-7.212 31.885 31.885 0 0 0 1.16-8.672 18.87 18.87 0 0 0-1.03-6.395 12.096 12.096 0 0 0-3.22-4.894 15.16 15.16 0 0 0-5.496-3.133 24.36 24.36 0 0 0-7.77-1.117h-9.96l-4.722 38.206zM468.86 109.98a93.548 93.548 0 0 1-9.23 8.03 50.47 50.47 0 0 1-9.272 5.58 44.133 44.133 0 0 1-10.13 3.22 62.267 62.267 0 0 1-11.72 1.03 37.946 37.946 0 0 1-14.51-2.705 32.91 32.91 0 0 1-11.376-7.64 34.255 34.255 0 0 1-7.383-11.893 43.525 43.525 0 0 1-2.62-15.454 60.763 60.763 0 0 1 1.59-13.908 58.672 58.672 0 0 1 4.55-12.75 53.322 53.322 0 0 1 7.255-10.99 47.558 47.558 0 0 1 9.658-8.628 45.517 45.517 0 0 1 11.763-5.623 44.981 44.981 0 0 1 13.607-2.02 36.156 36.156 0 0 1 12.664 2.062 29.72 29.72 0 0 1 9.315 5.366 23.15 23.15 0 0 1 5.752 7.426 18.935 18.935 0 0 1 1.976 8.242 25.434 25.434 0 0 1-2.404 11.12 22.885 22.885 0 0 1-8.37 8.97q-5.97 3.95-16.056 6.697a160.02 160.02 0 0 1-25.37 4.293q.17 9.1 3.99 13.308 3.82 4.208 11.29 4.207a27.136 27.136 0 0 0 6.098-.6 21.2 21.2 0 0 0 4.507-1.546 30.042 30.042 0 0 0 3.477-1.974l2.962-1.975a15.453 15.453 0 0 1 2.962-1.546 9.682 9.682 0 0 1 3.52-.6 5.213 5.213 0 0 1 2.49.642 8.085 8.085 0 0 1 2.146 1.675zm-29.362-55.805a15.473 15.473 0 0 0-11.59 5.28q-4.98 5.28-7.385 14.467a116.9 116.9 0 0 0 13.394-2.747 34.76 34.76 0 0 0 7.985-3.134 9.695 9.695 0 0 0 3.82-3.563 8.766 8.766 0 0 0 .988-4.12 6.327 6.327 0 0 0-1.717-4.208q-1.72-1.974-5.495-1.975zM538.145 56.15a10.205 10.205 0 0 1-2.232 2.232 4.878 4.878 0 0 1-2.748.687 8.01 8.01 0 0 1-3.39-.774q-1.675-.772-3.607-1.76a28.486 28.486 0 0 0-4.378-1.76 18.674 18.674 0 0 0-5.624-.774q-5.924 0-8.457 2.276a7.543 7.543 0 0 0-2.533 5.882 5.816 5.816 0 0 0 1.416 3.95 13.656 13.656 0 0 0 3.735 2.918 36.438 36.438 0 0 0 5.28 2.36q2.962 1.075 6.053 2.404a57.534 57.534 0 0 1 6.054 3.048 22.84 22.84 0 0 1 5.28 4.207 19.552 19.552 0 0 1 3.734 5.924 21.333 21.333 0 0 1 1.417 8.157 30.75 30.75 0 0 1-2.662 12.664 30.225 30.225 0 0 1-7.64 10.39 37.535 37.535 0 0 1-12.064 7.04 45.69 45.69 0 0 1-15.927 2.62 40.725 40.725 0 0 1-8.328-.86 46.136 46.136 0 0 1-7.77-2.318 35.533 35.533 0 0 1-6.654-3.477 22.168 22.168 0 0 1-4.893-4.336l6.525-9.788a9.6 9.6 0 0 1 2.79-2.704 7.262 7.262 0 0 1 3.907-.988 6.505 6.505 0 0 1 3.69 1.03l3.35 2.232a24.772 24.772 0 0 0 4.292 2.232 17.311 17.311 0 0 0 6.525 1.03q5.666 0 8.413-2.532a7.87 7.87 0 0 0 2.748-5.968 6.654 6.654 0 0 0-1.417-4.378 12.316 12.316 0 0 0-3.733-2.96 34.433 34.433 0 0 0-5.237-2.234q-2.92-.986-6.01-2.19a51.73 51.73 0 0 1-6.01-2.79 21.488 21.488 0 0 1-5.237-3.992 18.18 18.18 0 0 1-3.736-5.924 22.77 22.77 0 0 1-1.416-8.5 32.836 32.836 0 0 1 2.276-12.02 29.8 29.8 0 0 1 6.784-10.344 33.715 33.715 0 0 1 11.204-7.255 40.975 40.975 0 0 1 15.626-2.747 39.047 39.047 0 0 1 15.926 3.09 38.513 38.513 0 0 1 11.548 7.556zM616.618 126.552a71.27 71.27 0 0 1-13.65 1.288 54.445 54.445 0 0 1-22.195-4.336 49.175 49.175 0 0 1-16.7-11.85 51.774 51.774 0 0 1-10.516-17.684 64.482 64.482 0 0 1-3.65-21.936 78.857 78.857 0 0 1 2.36-19.447 74.347 74.347 0 0 1 6.698-17.3 68.57 68.57 0 0 1 10.518-14.51A65.323 65.323 0 0 1 583.306 9.66a68.022 68.022 0 0 1 16.57-7.127A68.9 68.9 0 0 1 618.766 0a54.25 54.25 0 0 1 22.106 4.336 48.512 48.512 0 0 1 16.656 11.89A52.582 52.582 0 0 1 668.003 34a64.646 64.646 0 0 1 3.648 21.893 79.58 79.58 0 0 1-2.06 18.287 73.543 73.543 0 0 1-5.923 16.398 69.755 69.755 0 0 1-9.358 14.037 67.932 67.932 0 0 1-12.28 11.205l24.986 34.17h-23.01a26.813 26.813 0 0 1-8.672-1.288 14.657 14.657 0 0 1-6.61-4.722zm-38.034-55.12a50.554 50.554 0 0 0 1.803 13.995 31.347 31.347 0 0 0 5.28 10.73 23.64 23.64 0 0 0 8.628 6.913 27.103 27.103 0 0 0 11.762 2.446 32.346 32.346 0 0 0 27.003-13.48 47.786 47.786 0 0 0 7.34-15.452 72.72 72.72 0 0 0 2.575-20.005 49.953 49.953 0 0 0-1.845-14.038 31.506 31.506 0 0 0-5.41-10.818 24.223 24.223 0 0 0-8.713-6.954 26.902 26.902 0 0 0-11.677-2.448 32.541 32.541 0 0 0-15.368 3.564 33.82 33.82 0 0 0-11.548 10.002 47.092 47.092 0 0 0-7.298 15.497 74.345 74.345 0 0 0-2.532 20.048z"/>
  </g>
</svg>